<svg width="14" height="14" viewBox="0 0 14 14" fill="none" xmlns="http://www.w3.org/2000/svg">
<path d="M5.59375 8.40625C5.98958 8.80208 6.45833 9 7 9C7.54167 9 8.01042 8.80208 8.40625 8.40625C8.80208 8.01042 9 7.54167 9 7C9 6.45833 8.80208 5.98958 8.40625 5.59375C8.01042 5.19792 7.54167 5 7 5C6.45833 5 5.98958 5.19792 5.59375 5.59375C5.19792 5.98958 5 6.45833 5 7C5 7.54167 5.19792 8.01042 5.59375 8.40625ZM2.28125 2.3125C3.59375 1 5.16667 0.34375 7 0.34375C8.83333 0.34375 10.3958 1 11.6875 2.3125C13 3.60417 13.6562 5.16667 13.6562 7V7.96875C13.6562 8.63542 13.4271 9.19792 12.9688 9.65625C12.5312 10.1146 11.9896 10.3438 11.3438 10.3438C10.5312 10.3438 9.875 10.0104 9.375 9.34375C8.70833 10.0104 7.91667 10.3438 7 10.3438C6.08333 10.3438 5.29167 10.0208 4.625 9.375C3.97917 8.70833 3.65625 7.91667 3.65625 7C3.65625 6.08333 3.97917 5.30208 4.625 4.65625C5.29167 3.98958 6.08333 3.65625 7 3.65625C7.91667 3.65625 8.69792 3.98958 9.34375 4.65625C10.0104 5.30208 10.3438 6.08333 10.3438 7V7.96875C10.3438 8.23958 10.4375 8.47917 10.625 8.6875C10.8333 8.89583 11.0729 9 11.3438 9C11.6146 9 11.8438 8.89583 12.0312 8.6875C12.2396 8.47917 12.3438 8.23958 12.3438 7.96875V7C12.3438 5.54167 11.8125 4.29167 10.75 3.25C9.70833 2.1875 8.45833 1.65625 7 1.65625C5.54167 1.65625 4.28125 2.1875 3.21875 3.25C2.17708 4.29167 1.65625 5.54167 1.65625 7C1.65625 8.45833 2.17708 9.71875 3.21875 10.7812C4.28125 11.8229 5.54167 12.3438 7 12.3438H10.3438V13.6562H7C5.16667 13.6562 3.59375 13.0104 2.28125 11.7188C0.989583 10.4062 0.34375 8.83333 0.34375 7C0.34375 5.16667 0.989583 3.60417 2.28125 2.3125Z" fill="#2C3C48"/>
</svg>
