<svg width="8" height="16" viewBox="0 0 8 16" fill="none" xmlns="http://www.w3.org/2000/svg">
<path d="M7 4H8V11.6562C8 12.6771 7.64583 13.5521 6.9375 14.2812C6.22917 14.9896 5.36458 15.3438 4.34375 15.3438C3.32292 15.3438 2.44792 14.9896 1.71875 14.2812C1.01042 13.5521 0.65625 12.6771 0.65625 11.6562V3.34375C0.65625 2.61458 0.916667 1.98958 1.4375 1.46875C1.97917 0.927083 2.61458 0.65625 3.34375 0.65625C4.07292 0.65625 4.69792 0.927083 5.21875 1.46875C5.73958 1.98958 6 2.61458 6 3.34375V10.3438C6 10.8021 5.83333 11.1979 5.5 11.5312C5.1875 11.8438 4.80208 12 4.34375 12C3.88542 12 3.48958 11.8438 3.15625 11.5312C2.82292 11.1979 2.65625 10.8021 2.65625 10.3438V4H3.65625V10.3438C3.65625 10.5312 3.71875 10.6875 3.84375 10.8125C3.98958 10.9375 4.15625 11 4.34375 11C4.53125 11 4.6875 10.9375 4.8125 10.8125C4.9375 10.6875 5 10.5312 5 10.3438V3.34375C5 2.88542 4.83333 2.48958 4.5 2.15625C4.1875 1.82292 3.80208 1.65625 3.34375 1.65625C2.88542 1.65625 2.48958 1.82292 2.15625 2.15625C1.82292 2.48958 1.65625 2.88542 1.65625 3.34375V11.6562C1.65625 12.3854 1.91667 13.0208 2.4375 13.5625C2.97917 14.0833 3.61458 14.3438 4.34375 14.3438C5.07292 14.3438 5.69792 14.0833 6.21875 13.5625C6.73958 13.0208 7 12.3854 7 11.6562V4Z" fill="#777777"/>
</svg>
