<svg width="121" height="57" viewBox="0 0 121 57" fill="none" xmlns="http://www.w3.org/2000/svg">
<path d="M110.523 40.0129C107.918 40.885 105.126 41.0705 102.425 40.5507C94.6462 39.018 89.1574 32.1341 89.7444 24.6639C90.3314 17.1938 96.6486 11.0386 104.085 10.6111C112.314 10.1351 119.29 15.3706 120.754 23.1258C121.029 24.5456 120.924 25.9735 120.916 27.404C120.891 31.9754 120.867 36.5467 120.916 41.1181C120.998 49.1852 114.495 54.7703 109.025 55.8648C106.008 56.4698 103.328 55.0742 102.568 52.3394C101.808 49.6047 103.438 46.9614 106.345 46.1009C109.393 45.192 110.797 43.1725 110.523 40.0129ZM110.506 25.9116C110.517 25.2409 110.391 24.5748 110.136 23.9522C109.882 23.3296 109.503 22.763 109.022 22.2854C108.542 21.8079 107.969 21.4289 107.338 21.1706C106.706 20.9123 106.028 20.7798 105.344 20.781C102.513 20.781 100.132 23.029 100.108 25.7207C100.102 27.0753 100.646 28.3764 101.619 29.338C102.593 30.2996 103.916 30.843 105.297 30.8487C106.655 30.8674 107.965 30.3587 108.941 29.4336C109.917 28.5085 110.48 27.2423 110.506 25.9116Z" fill="#2C3C48"/>
<path d="M11.7493 15.4917C11.7493 12.1304 11.7493 8.76908 11.7493 5.40779C11.7493 2.27776 13.9849 -0.0213625 16.9611 0.000149713C19.9373 0.021662 22.0384 2.2428 22.1015 5.34863C22.1289 6.8276 22.1427 8.30656 22.1015 9.78284C22.0659 10.7751 22.3401 11.001 23.377 10.7401C29.4583 9.21007 34.7386 10.7401 38.9574 15.2228C43.0061 19.5252 44.1445 24.6639 42.1283 30.198C40.0875 35.7912 35.8797 39.1686 29.9054 40.1662C20.4173 41.7527 11.8426 34.608 11.7657 25.1722C11.7301 21.9453 11.7521 18.7185 11.7493 15.4917ZM27.4477 30.3082C30.2949 30.2813 32.6292 27.9957 32.5936 25.2636C32.584 24.5906 32.4383 23.9262 32.1649 23.3088C31.8915 22.6914 31.496 22.1333 31.001 21.6668C30.5061 21.2004 29.9216 20.8349 29.2815 20.5914C28.6415 20.3479 27.9584 20.2314 27.2721 20.2486C24.4961 20.3023 22.1893 22.5611 22.1866 25.2286C22.1869 25.9023 22.3237 26.5693 22.5891 27.1907C22.8546 27.8121 23.2434 28.3756 23.7329 28.8484C24.2224 29.3213 24.8028 29.6941 25.4406 29.9451C26.0783 30.1962 26.7605 30.3205 27.4477 30.3109V30.3082Z" fill="#2C3C48"/>
<path d="M57.4976 41.3063C58.2766 39.1766 58.9459 37.3239 59.6371 35.4819C59.745 35.218 59.783 34.9317 59.7475 34.6496C59.712 34.3674 59.6042 34.0987 59.4341 33.8685C54.3321 25.7395 57.6951 14.6715 67.0214 11.3909C76.6439 8.00807 86.4722 14.0799 87.4624 24.0723C88.2359 31.9109 83.5481 37.2916 79.1839 39.2627C74.6799 41.2956 70.1073 41.4327 65.5785 39.3111C65.2654 39.1413 64.9177 39.0417 64.5606 39.0194C64.2034 38.997 63.8457 39.0526 63.513 39.182C61.6066 39.8731 59.6783 40.5265 57.4976 41.3063Z" fill="#0E9AFF"/>
<path d="M55.1357 20.1733C55.1357 25.1023 55.1796 30.0312 55.1357 34.9629C55.0946 38.7276 51.8606 41.0724 48.3522 39.9726C46.3169 39.3353 44.9207 37.453 44.8576 35.1592C44.811 33.4114 44.8576 31.6635 44.8576 29.9156C44.8576 21.7598 44.8384 13.6013 44.8576 5.44545C44.8714 1.81526 47.6939 -0.526891 51.1309 0.158812C53.4872 0.629392 55.1083 2.62465 55.144 5.25184C55.1879 8.61312 55.144 11.9744 55.1577 15.3357C55.1449 16.9473 55.1376 18.5598 55.1357 20.1733Z" fill="#2C3C48"/>
<path d="M9.91151 35.4415C9.9294 36.0889 9.81509 36.7332 9.57533 37.3366C9.33557 37.9401 8.97518 38.4904 8.51535 38.9554C8.05553 39.4203 7.5055 39.7905 6.89767 40.0441C6.28983 40.2977 5.63646 40.4296 4.97587 40.4321C4.31528 40.4346 3.66082 40.3077 3.051 40.0587C2.44118 39.8097 1.8883 39.4437 1.42481 38.9823C0.96132 38.5209 0.596561 37.9733 0.352041 37.3717C0.107522 36.7701 -0.0118417 36.1266 0.000926099 35.4792C0.027408 34.2122 0.547455 33.0032 1.45434 32.1002C2.36123 31.1971 3.58621 30.6685 4.87803 30.6228C7.55248 30.5502 9.88134 32.7767 9.91151 35.4415Z" fill="#2C3C48"/>
</svg>
