<svg width="16" height="12" viewBox="0 0 16 12" fill="none" xmlns="http://www.w3.org/2000/svg">
<path d="M3.9375 1.4375H15.25C15.375 1.4375 15.4792 1.39583 15.5625 1.3125C15.6458 1.22917 15.6875 1.125 15.6875 1C15.6875 0.875 15.6458 0.770833 15.5625 0.6875C15.4792 0.604167 15.375 0.5625 15.25 0.5625H3.9375C3.8125 0.5625 3.70833 0.604167 3.625 0.6875C3.54167 0.770833 3.5 0.875 3.5 1C3.5 1.125 3.54167 1.22917 3.625 1.3125C3.70833 1.39583 3.8125 1.4375 3.9375 1.4375ZM15.25 5.5625H3.9375C3.8125 5.5625 3.70833 5.60417 3.625 5.6875C3.54167 5.77083 3.5 5.875 3.5 6C3.5 6.125 3.54167 6.25 3.625 6.375C3.70833 6.45833 3.8125 6.5 3.9375 6.5H15.25C15.375 6.5 15.4792 6.45833 15.5625 6.375C15.6458 6.25 15.6875 6.125 15.6875 6C15.6875 5.875 15.6458 5.77083 15.5625 5.6875C15.4792 5.60417 15.375 5.5625 15.25 5.5625ZM15.25 10.5625H3.9375C3.8125 10.5625 3.70833 10.6042 3.625 10.6875C3.54167 10.7708 3.5 10.875 3.5 11C3.5 11.125 3.54167 11.25 3.625 11.375C3.70833 11.4583 3.8125 11.5 3.9375 11.5H15.25C15.375 11.5 15.4792 11.4583 15.5625 11.375C15.6458 11.25 15.6875 11.125 15.6875 11C15.6875 10.875 15.6458 10.7708 15.5625 10.6875C15.4792 10.6042 15.375 10.5625 15.25 10.5625ZM1.4375 0.25C1.22917 0.25 1.0625 0.333333 0.9375 0.5C0.8125 0.625 0.75 0.791667 0.75 1C0.75 1.16667 0.8125 1.33333 0.9375 1.5C1.0625 1.625 1.22917 1.6875 1.4375 1.6875C1.64583 1.6875 1.8125 1.625 1.9375 1.5C2.0625 1.33333 2.125 1.16667 2.125 1C2.125 0.791667 2.0625 0.625 1.9375 0.5C1.8125 0.333333 1.64583 0.25 1.4375 0.25ZM1.4375 5.3125C1.22917 5.3125 1.0625 5.375 0.9375 5.5C0.8125 5.625 0.75 5.79167 0.75 6C0.75 6.20833 0.8125 6.375 0.9375 6.5C1.0625 6.625 1.22917 6.6875 1.4375 6.6875C1.64583 6.6875 1.8125 6.625 1.9375 6.5C2.0625 6.375 2.125 6.22917 2.125 6.0625C2.125 5.85417 2.0625 5.6875 1.9375 5.5625C1.8125 5.39583 1.64583 5.3125 1.4375 5.3125ZM1.4375 10.3125C1.27083 10.3125 1.10417 10.3958 0.9375 10.5625C0.8125 10.6875 0.75 10.8542 0.75 11.0625C0.75 11.2292 0.8125 11.3958 0.9375 11.5625C1.0625 11.6875 1.22917 11.75 1.4375 11.75C1.64583 11.75 1.8125 11.6875 1.9375 11.5625C2.0625 11.3958 2.125 11.2292 2.125 11.0625C2.125 10.8542 2.0625 10.6875 1.9375 10.5625C1.8125 10.3958 1.64583 10.3125 1.4375 10.3125Z" fill="black"/>
</svg>
