<svg width="16" height="16" viewBox="0 0 16 16" fill="none" xmlns="http://www.w3.org/2000/svg">
<path d="M14.5 0.3125H1.5C1.16667 0.3125 0.875 0.4375 0.625 0.6875C0.416667 0.895833 0.3125 1.16667 0.3125 1.5V14.5C0.3125 14.8333 0.416667 15.125 0.625 15.375C0.875 15.5833 1.16667 15.6875 1.5 15.6875H14.5C14.8333 15.6875 15.125 15.5833 15.375 15.375C15.625 15.125 15.75 14.8333 15.75 14.5V1.5C15.7083 1.16667 15.5625 0.895833 15.3125 0.6875C15.1042 0.4375 14.8333 0.3125 14.5 0.3125ZM1.5 1.1875H14.5C14.5833 1.1875 14.6458 1.22917 14.6875 1.3125C14.7708 1.35417 14.8125 1.41667 14.8125 1.5V5.125H1.1875V1.5C1.1875 1.41667 1.20833 1.35417 1.25 1.3125C1.33333 1.22917 1.41667 1.1875 1.5 1.1875ZM7.1875 5.9375H14.8125V10H7.1875V5.9375ZM1.1875 14.5V5.9375H6.3125V14.8125H1.5C1.41667 14.8125 1.33333 14.7917 1.25 14.75C1.20833 14.6667 1.1875 14.5833 1.1875 14.5ZM14.5 14.8125H7.1875V10.9375H14.8125V14.5C14.8125 14.5833 14.7708 14.6667 14.6875 14.75C14.6458 14.7917 14.5833 14.8125 14.5 14.8125Z" fill="#0E9AFF"/>
</svg>
