<svg width="14" height="10" viewBox="0 0 14 10" fill="none" xmlns="http://www.w3.org/2000/svg">
<path fill-rule="evenodd" clip-rule="evenodd" d="M1.4964 5.375C1.54723 5.47761 1.62223 5.62066 1.72265 5.79123C1.93787 6.15678 2.2671 6.6441 2.72159 7.13016C3.62913 8.10072 5.01795 9.05 7.00004 9.05C8.98212 9.05 10.3709 8.10072 11.2785 7.13016C11.733 6.6441 12.0622 6.15678 12.2774 5.79123C12.3779 5.62066 12.4529 5.47761 12.5037 5.375C12.4529 5.27239 12.3779 5.12935 12.2774 4.95878C12.0622 4.59323 11.733 4.10591 11.2785 3.61985C10.3709 2.64929 8.98212 1.7 7.00004 1.7C5.01795 1.7 3.62913 2.64928 2.72159 3.61985C2.2671 4.10591 1.93787 4.59323 1.72265 4.95878C1.62223 5.12935 1.54723 5.27239 1.4964 5.375ZM13 5.375C13.4156 5.20231 13.4155 5.20211 13.4154 5.2019L13.4147 5.20011L13.4131 5.19641L13.408 5.18459C13.4038 5.17478 13.3978 5.16114 13.3901 5.14394C13.3746 5.10953 13.352 5.06081 13.3221 4.99981C13.2624 4.87789 13.1733 4.70652 13.053 4.50216C12.8129 4.09428 12.4457 3.55035 11.9359 3.00516C10.9148 1.91322 9.30367 0.800003 7.00004 0.800003C4.69641 0.800003 3.08523 1.91322 2.06421 3.00516C1.55442 3.55035 1.18722 4.09428 0.947084 4.50217C0.826771 4.70652 0.737667 4.8779 0.677951 4.99982C0.648076 5.06081 0.625505 5.10954 0.610015 5.14394C0.602269 5.16115 0.596289 5.17478 0.592047 5.18459L0.586984 5.19641L0.585423 5.20011L0.584883 5.2014C0.584795 5.20161 0.584504 5.20231 1.00005 5.375L0.584504 5.20231C0.538564 5.31286 0.538564 5.43715 0.584504 5.5477L1.00005 5.375C0.584504 5.5477 0.584416 5.54748 0.584504 5.5477L0.584883 5.5486L0.585423 5.54989L0.586984 5.55359L0.592047 5.56541C0.596289 5.57522 0.602269 5.58886 0.610015 5.60607C0.625505 5.64047 0.648076 5.68919 0.677951 5.75019C0.737667 5.87211 0.826771 6.04348 0.947084 6.24784C1.18722 6.65573 1.55442 7.19966 2.06421 7.74485C3.08523 8.83678 4.69641 9.95 7.00004 9.95C9.30367 9.95 10.9148 8.83679 11.9359 7.74485C12.4457 7.19966 12.8129 6.65573 13.053 6.24784C13.1733 6.04349 13.2624 5.87211 13.3221 5.75019C13.352 5.6892 13.3746 5.64047 13.3901 5.60607C13.3978 5.58886 13.4038 5.57523 13.408 5.56542L13.4131 5.5536L13.4147 5.5499L13.4152 5.54861C13.4153 5.5484 13.4156 5.5477 13 5.375ZM13 5.375L13.4156 5.5477C13.4615 5.43715 13.4614 5.31245 13.4154 5.2019L13 5.375ZM4.83576 5.375C4.83576 4.19915 5.82111 3.275 7.00005 3.275C8.17899 3.275 9.16434 4.19915 9.16434 5.375C9.16434 6.55086 8.17899 7.475 7.00005 7.475C5.82111 7.475 4.83576 6.55086 4.83576 5.375ZM7.00005 4.175C6.28544 4.175 5.73576 4.72832 5.73576 5.375C5.73576 6.02169 6.28544 6.575 7.00005 6.575C7.71466 6.575 8.26433 6.02169 8.26433 5.375C8.26433 4.72832 7.71466 4.175 7.00005 4.175Z" fill="#2C2C2C"/>
</svg>
