<svg width="10" height="12" viewBox="0 0 10 12" fill="none" xmlns="http://www.w3.org/2000/svg">
<path d="M0.34375 10.6562H9.65625V12H0.34375V10.6562ZM7.8125 8.1875C7.04167 8.95833 6.10417 9.34375 5 9.34375C3.89583 9.34375 2.94792 8.95833 2.15625 8.1875C1.38542 7.39583 1 6.44792 1 5.34375V0H2.65625V5.34375C2.65625 5.98958 2.88542 6.54167 3.34375 7C3.80208 7.4375 4.35417 7.65625 5 7.65625C5.64583 7.65625 6.19792 7.4375 6.65625 7C7.11458 6.54167 7.34375 5.98958 7.34375 5.34375V0H9V5.34375C9 6.44792 8.60417 7.39583 7.8125 8.1875Z" fill="#777777"/>
</svg>
