<svg width="13" height="10" viewBox="0 0 13 10" fill="none" xmlns="http://www.w3.org/2000/svg">
<path d="M3.65625 0.34375H13V1.65625H3.65625V0.34375ZM3.65625 5.65625V4.34375H13V5.65625H3.65625ZM3.65625 9.65625V8.34375H13V9.65625H3.65625ZM0.9375 8.3125C1.14583 8.10417 1.38542 8 1.65625 8C1.92708 8 2.15625 8.10417 2.34375 8.3125C2.55208 8.5 2.65625 8.72917 2.65625 9C2.65625 9.27083 2.55208 9.51042 2.34375 9.71875C2.15625 9.90625 1.92708 10 1.65625 10C1.38542 10 1.14583 9.90625 0.9375 9.71875C0.75 9.51042 0.65625 9.27083 0.65625 9C0.65625 8.72917 0.75 8.5 0.9375 8.3125ZM0.9375 0.28125C1.14583 0.09375 1.38542 0 1.65625 0C1.92708 0 2.15625 0.09375 2.34375 0.28125C2.55208 0.46875 2.65625 0.708333 2.65625 1C2.65625 1.29167 2.55208 1.53125 2.34375 1.71875C2.15625 1.90625 1.92708 2 1.65625 2C1.38542 2 1.14583 1.90625 0.9375 1.71875C0.75 1.53125 0.65625 1.29167 0.65625 1C0.65625 0.708333 0.75 0.46875 0.9375 0.28125ZM0.9375 4.28125C1.14583 4.09375 1.38542 4 1.65625 4C1.92708 4 2.15625 4.09375 2.34375 4.28125C2.55208 4.46875 2.65625 4.70833 2.65625 5C2.65625 5.29167 2.55208 5.53125 2.34375 5.71875C2.15625 5.90625 1.92708 6 1.65625 6C1.38542 6 1.14583 5.90625 0.9375 5.71875C0.75 5.53125 0.65625 5.29167 0.65625 5C0.65625 4.70833 0.75 4.46875 0.9375 4.28125Z" fill="#777777"/>
</svg>
