<svg width="8" height="10" viewBox="0 0 8 10" fill="none" xmlns="http://www.w3.org/2000/svg">
<path d="M5 8.34375C5.29167 8.34375 5.53125 8.25 5.71875 8.0625C5.90625 7.85417 6 7.61458 6 7.34375C6 7.07292 5.90625 6.84375 5.71875 6.65625C5.53125 6.44792 5.29167 6.34375 5 6.34375H2.65625V8.34375H5ZM2.65625 2.34375V4.34375H4.65625C4.92708 4.34375 5.15625 4.25 5.34375 4.0625C5.55208 3.85417 5.65625 3.61458 5.65625 3.34375C5.65625 3.07292 5.55208 2.84375 5.34375 2.65625C5.15625 2.44792 4.92708 2.34375 4.65625 2.34375H2.65625ZM6.40625 5.1875C7.36458 5.625 7.84375 6.38542 7.84375 7.46875C7.84375 8.17708 7.60417 8.78125 7.125 9.28125C6.66667 9.76042 6.08333 10 5.375 10H0.65625V0.65625H4.84375C5.59375 0.65625 6.21875 0.916667 6.71875 1.4375C7.23958 1.95833 7.5 2.59375 7.5 3.34375C7.5 4.09375 7.13542 4.70833 6.40625 5.1875Z" fill="#777777"/>
</svg>
