<svg width="12" height="16" viewBox="0 0 12 16" fill="none" xmlns="http://www.w3.org/2000/svg">
<path d="M1.5625 8.4375H8C8.125 8.4375 8.22917 8.39583 8.3125 8.3125C8.39583 8.22917 8.4375 8.125 8.4375 8C8.4375 7.875 8.39583 7.77083 8.3125 7.6875C8.22917 7.60417 8.125 7.5625 8 7.5625H1.6875L3 6.25C3.08333 6.16667 3.125 6.0625 3.125 5.9375C3.16667 5.8125 3.125 5.70833 3 5.625C2.91667 5.54167 2.8125 5.5 2.6875 5.5C2.60417 5.5 2.5 5.54167 2.375 5.625L0.5625 7.5C0.395833 7.66667 0.3125 7.875 0.3125 8.125C0.3125 8.33333 0.395833 8.5 0.5625 8.625L2.375 10.5C2.45833 10.5833 2.5625 10.625 2.6875 10.625C2.8125 10.625 2.91667 10.5833 3 10.5C3.08333 10.375 3.125 10.2708 3.125 10.1875C3.125 10.0625 3.08333 9.95833 3 9.875L1.5625 8.4375ZM9.5625 0.3125H6.625C6.33333 0.3125 6.08333 0.4375 5.875 0.6875C5.66667 0.895833 5.5625 1.14583 5.5625 1.4375V3.75C5.5625 3.875 5.60417 3.97917 5.6875 4.0625C5.77083 4.14583 5.875 4.1875 6 4.1875C6.125 4.1875 6.22917 4.14583 6.3125 4.0625C6.39583 3.97917 6.4375 3.875 6.4375 3.75V1.375C6.4375 1.33333 6.45833 1.29167 6.5 1.25C6.54167 1.20833 6.60417 1.1875 6.6875 1.1875H9.625C9.95833 1.1875 10.25 1.3125 10.5 1.5625C10.75 1.8125 10.875 2.10417 10.875 2.4375V13.5C10.875 13.875 10.75 14.1875 10.5 14.4375C10.25 14.6458 9.95833 14.75 9.625 14.75H6.625C6.58333 14.75 6.54167 14.7292 6.5 14.6875C6.45833 14.6458 6.4375 14.6042 6.4375 14.5625V12.25C6.4375 12.125 6.39583 12.0208 6.3125 11.9375C6.22917 11.8542 6.125 11.8125 6 11.8125C5.875 11.8125 5.75 11.8542 5.625 11.9375C5.54167 12.0208 5.5 12.125 5.5 12.25V14.5625C5.5 14.8542 5.60417 15.1042 5.8125 15.3125C6.0625 15.5208 6.33333 15.625 6.625 15.625H9.5625C10.1458 15.625 10.6458 15.4375 11.0625 15.0625C11.4792 14.6458 11.6875 14.125 11.6875 13.5V2.4375C11.6875 1.85417 11.4792 1.35417 11.0625 0.9375C10.6458 0.520833 10.1458 0.3125 9.5625 0.3125Z" fill="black"/>
</svg>
