<svg width="12" height="10" viewBox="0 0 12 10" fill="none" xmlns="http://www.w3.org/2000/svg">
<path d="M10.6406 0.875H1.35938C1.04688 0.875 0.78125 0.984375 0.5625 1.20312C0.34375 1.42188 0.234375 1.6875 0.234375 2V8C0.234375 8.21875 0.28125 8.40625 0.375 8.5625C0.46875 8.71875 0.609375 8.85938 0.796875 8.98438C0.984375 9.07812 1.15625 9.125 1.3125 9.125C1.5 9.125 1.70312 9.07812 1.92188 8.98438L3.5625 8C3.625 7.96875 3.70312 7.95312 3.79688 7.95312H10.6406C10.9531 7.95312 11.2188 7.84375 11.4375 7.625C11.6562 7.40625 11.7656 7.14062 11.7656 6.82812V2C11.7656 1.6875 11.6562 1.42188 11.4375 1.20312C11.2188 0.984375 10.9531 0.875 10.6406 0.875ZM11.1094 6.82812C11.1094 6.95312 11.0625 7.0625 10.9688 7.15625C10.875 7.25 10.7656 7.29688 10.6406 7.29688H3.79688C3.60938 7.29688 3.42188 7.34375 3.23438 7.4375L1.59375 8.42188C1.4375 8.48438 1.28125 8.48438 1.125 8.42188C0.96875 8.32812 0.890625 8.1875 0.890625 8V2C0.890625 1.875 0.9375 1.76562 1.03125 1.67188C1.125 1.57812 1.23438 1.53125 1.35938 1.53125H10.6875C10.8125 1.53125 10.9219 1.57812 11.0156 1.67188C11.1094 1.76562 11.1562 1.875 11.1562 2V6.82812H11.1094ZM8.39062 3.125H3.375C3.28125 3.125 3.1875 3.15625 3.09375 3.21875C3.03125 3.28125 3 3.35938 3 3.45312C3 3.54688 3.03125 3.625 3.09375 3.6875C3.1875 3.75 3.28125 3.78125 3.375 3.78125H8.39062C8.48438 3.78125 8.5625 3.75 8.625 3.6875C8.6875 3.625 8.71875 3.54688 8.71875 3.45312C8.71875 3.35938 8.6875 3.28125 8.625 3.21875C8.5625 3.15625 8.48438 3.125 8.39062 3.125ZM7.59375 5.23438H3.375C3.28125 5.23438 3.1875 5.26562 3.09375 5.32812C3.03125 5.39062 3 5.46875 3 5.5625C3 5.65625 3.03125 5.75 3.09375 5.84375C3.1875 5.90625 3.28125 5.9375 3.375 5.9375H7.59375C7.6875 5.9375 7.76562 5.90625 7.82812 5.84375C7.92188 5.75 7.96875 5.65625 7.96875 5.5625C7.96875 5.46875 7.92188 5.39062 7.82812 5.32812C7.76562 5.26562 7.6875 5.23438 7.59375 5.23438Z" fill="black"/>
</svg>
