<svg width="28" height="28" viewBox="0 0 24 24" fill="none" xmlns="http://www.w3.org/2000/svg">
<path fill-rule="evenodd" clip-rule="evenodd" d="M11.8733 5.90479C10.0356 5.90479 8.52721 7.35863 8.45957 9.19507L8.381 11.3286C8.31817 13.0347 7.66104 14.6749 6.54682 15.9588C7.75323 16.0582 9.77642 16.1905 12 16.1905C14.2231 16.1905 16.1874 16.0583 17.3492 15.9589C16.3005 14.7031 15.6438 13.14 15.4978 11.5053L15.2757 9.01707C15.1185 7.25517 13.6422 5.90479 11.8733 5.90479ZM7.31749 9.15301C7.40775 6.70217 9.42076 4.76193 11.8733 4.76193C14.234 4.76193 16.2042 6.5641 16.4141 8.91546L16.6362 11.4036C16.7672 12.8714 17.3811 14.2784 18.3616 15.3835C18.8932 15.9827 18.5707 16.9969 17.7044 17.075C16.5685 17.1774 14.4387 17.3334 12 17.3334C9.5143 17.3334 7.27933 17.1713 6.11772 17.0692C5.27115 16.9949 4.95241 15.9907 5.49931 15.4131C6.55664 14.2964 7.18244 12.82 7.23892 11.2865L7.31749 9.15301Z" fill="#0A0A0A"/>
<path fill-rule="evenodd" clip-rule="evenodd" d="M14.4762 18.6667C14.4762 18.9823 14.2204 19.2381 13.9048 19.2381H10.0952C9.77965 19.2381 9.52382 18.9823 9.52382 18.6667C9.52382 18.3511 9.77965 18.0953 10.0952 18.0953H13.9048C14.2204 18.0953 14.4762 18.3511 14.4762 18.6667Z" fill="#0A0A0A"/>
</svg>
