<svg width="41" height="9" viewBox="0 0 41 9" fill="none" xmlns="http://www.w3.org/2000/svg">
<path d="M0.972168 0.249512H4.00684C4.76595 0.249512 5.38184 0.489421 5.85449 0.969238C6.32715 1.44548 6.56348 2.06673 6.56348 2.83301C6.56348 3.58854 6.32178 4.20443 5.83838 4.68066C5.35498 5.15332 4.73193 5.38965 3.96924 5.38965H2.17529V8H0.972168V0.249512ZM2.17529 1.31299V4.33154H3.68994C4.20915 4.33154 4.61198 4.20264 4.89844 3.94482C5.18848 3.68343 5.3335 3.31283 5.3335 2.83301C5.3335 2.34245 5.19206 1.96647 4.90918 1.70508C4.6263 1.44368 4.21989 1.31299 3.68994 1.31299H2.17529ZM12.4189 0.0615234C13.5361 0.0615234 14.417 0.426758 15.0615 1.15723C15.7061 1.88411 16.0283 2.8724 16.0283 4.12207C16.0283 5.37174 15.7061 6.36182 15.0615 7.09229C14.417 7.82275 13.5361 8.18799 12.4189 8.18799C11.2982 8.18799 10.4137 7.82454 9.76562 7.09766C9.12109 6.36719 8.79883 5.37533 8.79883 4.12207C8.79883 2.8724 9.12288 1.88411 9.771 1.15723C10.4227 0.426758 11.3053 0.0615234 12.4189 0.0615234ZM12.4189 1.18408C11.6885 1.18408 11.1066 1.44906 10.6733 1.979C10.2437 2.50895 10.0288 3.22331 10.0288 4.12207C10.0288 5.02083 10.2419 5.73698 10.668 6.27051C11.0941 6.80046 11.6777 7.06543 12.4189 7.06543C13.153 7.06543 13.7331 6.80046 14.1592 6.27051C14.5853 5.73698 14.7983 5.02083 14.7983 4.12207C14.7983 3.21973 14.5853 2.50537 14.1592 1.979C13.7331 1.44906 13.153 1.18408 12.4189 1.18408ZM18.2905 5.91602H19.4829C19.533 6.28483 19.7246 6.57845 20.0576 6.79688C20.3942 7.01172 20.8221 7.11914 21.3413 7.11914C21.8247 7.11914 22.224 7.00814 22.5391 6.78613C22.8577 6.56055 23.0171 6.27588 23.0171 5.93213C23.0171 5.63851 22.8989 5.3986 22.6626 5.2124C22.4299 5.02262 22.0557 4.86686 21.54 4.74512L20.541 4.50342C19.8392 4.3387 19.3236 4.08268 18.9941 3.73535C18.6647 3.38802 18.5 2.92969 18.5 2.36035C18.5 1.66927 18.7578 1.11426 19.2734 0.695312C19.7926 0.272786 20.4748 0.0615234 21.3198 0.0615234C22.1076 0.0615234 22.7611 0.269206 23.2803 0.68457C23.7995 1.09993 24.077 1.63346 24.1128 2.28516H22.9419C22.8846 1.92708 22.7091 1.64421 22.4155 1.43652C22.1255 1.22884 21.7549 1.125 21.3037 1.125C20.8275 1.125 20.4443 1.23063 20.1543 1.44189C19.8643 1.65316 19.7192 1.93245 19.7192 2.27979C19.7192 2.5555 19.8285 2.7793 20.0469 2.95117C20.2689 3.12305 20.6323 3.26807 21.1372 3.38623L21.9912 3.5957C22.7861 3.7819 23.359 4.04688 23.71 4.39062C24.0609 4.73079 24.2363 5.19271 24.2363 5.77637C24.2363 6.51758 23.9678 7.10482 23.4307 7.53809C22.8936 7.97135 22.1667 8.18799 21.25 8.18799C20.3906 8.18799 19.6924 7.9821 19.1553 7.57031C18.6217 7.15853 18.3335 6.6071 18.2905 5.91602ZM29.9897 8H28.7866V1.34521H26.3481V0.249512H32.4229V1.34521H29.9897V8ZM34.5347 5.91602H35.7271C35.7772 6.28483 35.9688 6.57845 36.3018 6.79688C36.6383 7.01172 37.0662 7.11914 37.5854 7.11914C38.0688 7.11914 38.4681 7.00814 38.7832 6.78613C39.1019 6.56055 39.2612 6.27588 39.2612 5.93213C39.2612 5.63851 39.1431 5.3986 38.9067 5.2124C38.674 5.02262 38.2998 4.86686 37.7842 4.74512L36.7852 4.50342C36.0833 4.3387 35.5677 4.08268 35.2383 3.73535C34.9089 3.38802 34.7441 2.92969 34.7441 2.36035C34.7441 1.66927 35.002 1.11426 35.5176 0.695312C36.0368 0.272786 36.7189 0.0615234 37.564 0.0615234C38.3517 0.0615234 39.0052 0.269206 39.5244 0.68457C40.0436 1.09993 40.3211 1.63346 40.3569 2.28516H39.186C39.1287 1.92708 38.9533 1.64421 38.6597 1.43652C38.3696 1.22884 37.999 1.125 37.5479 1.125C37.0716 1.125 36.6885 1.23063 36.3984 1.44189C36.1084 1.65316 35.9634 1.93245 35.9634 2.27979C35.9634 2.5555 36.0726 2.7793 36.291 2.95117C36.513 3.12305 36.8765 3.26807 37.3813 3.38623L38.2354 3.5957C39.0303 3.7819 39.6032 4.04688 39.9541 4.39062C40.305 4.73079 40.4805 5.19271 40.4805 5.77637C40.4805 6.51758 40.2119 7.10482 39.6748 7.53809C39.1377 7.97135 38.4108 8.18799 37.4941 8.18799C36.6348 8.18799 35.9365 7.9821 35.3994 7.57031C34.8659 7.15853 34.5776 6.6071 34.5347 5.91602Z" fill="#0A0A0A"/>
</svg>
