<svg width="16" height="16" viewBox="0 0 16 16" fill="none" xmlns="http://www.w3.org/2000/svg">
<path d="M4.9375 6.5625H1.75C1.33333 6.5625 0.979167 6.41667 0.6875 6.125C0.4375 5.83333 0.3125 5.5 0.3125 5.125V1.9375C0.3125 1.52083 0.4375 1.1875 0.6875 0.9375C0.979167 0.645833 1.33333 0.5 1.75 0.5H4.9375C5.3125 0.5 5.64583 0.645833 5.9375 0.9375C6.22917 1.1875 6.375 1.52083 6.375 1.9375V5.125C6.375 5.5 6.22917 5.83333 5.9375 6.125C5.64583 6.41667 5.3125 6.5625 4.9375 6.5625ZM1.75 1.375C1.58333 1.375 1.4375 1.4375 1.3125 1.5625C1.22917 1.64583 1.1875 1.77083 1.1875 1.9375V5.125C1.1875 5.25 1.22917 5.375 1.3125 5.5C1.4375 5.625 1.58333 5.6875 1.75 5.6875H4.9375C5.0625 5.6875 5.1875 5.625 5.3125 5.5C5.4375 5.375 5.5 5.25 5.5 5.125V1.9375C5.5 1.77083 5.4375 1.64583 5.3125 1.5625C5.22917 1.4375 5.10417 1.375 4.9375 1.375H1.75ZM14.25 6.5625H11.0625C10.6875 6.5625 10.3542 6.41667 10.0625 6.125C9.77083 5.83333 9.625 5.5 9.625 5.125V1.9375C9.625 1.52083 9.77083 1.1875 10.0625 0.9375C10.3542 0.645833 10.6875 0.5 11.0625 0.5H14.25C14.6667 0.5 15 0.645833 15.25 0.9375C15.5417 1.1875 15.6875 1.52083 15.6875 1.9375V5.125C15.6875 5.5 15.5417 5.83333 15.25 6.125C15 6.41667 14.6667 6.5625 14.25 6.5625ZM11.0625 1.375C10.9375 1.375 10.8125 1.4375 10.6875 1.5625C10.5625 1.64583 10.5 1.77083 10.5 1.9375V5.125C10.5 5.25 10.5417 5.375 10.625 5.5C10.75 5.625 10.8958 5.6875 11.0625 5.6875H14.25C14.4167 5.6875 14.5417 5.625 14.625 5.5C14.75 5.375 14.8125 5.25 14.8125 5.125V1.9375C14.8125 1.77083 14.75 1.64583 14.625 1.5625C14.5417 1.4375 14.4167 1.375 14.25 1.375H11.0625ZM4.9375 15.5H1.75C1.33333 15.5 0.979167 15.375 0.6875 15.125C0.4375 14.8333 0.3125 14.4792 0.3125 14.0625V10.875C0.3125 10.5 0.4375 10.1667 0.6875 9.875C0.979167 9.58333 1.33333 9.4375 1.75 9.4375H4.9375C5.3125 9.4375 5.64583 9.58333 5.9375 9.875C6.22917 10.1667 6.375 10.5 6.375 10.875V14.0625C6.375 14.4792 6.22917 14.8333 5.9375 15.125C5.64583 15.375 5.3125 15.5 4.9375 15.5ZM1.75 10.3125C1.58333 10.3125 1.4375 10.375 1.3125 10.5C1.22917 10.625 1.1875 10.75 1.1875 10.875V14.0625C1.1875 14.2292 1.22917 14.375 1.3125 14.5C1.4375 14.5833 1.58333 14.625 1.75 14.625H4.9375C5.0625 14.625 5.1875 14.5833 5.3125 14.5C5.4375 14.375 5.5 14.2292 5.5 14.0625V10.875C5.5 10.75 5.4375 10.625 5.3125 10.5C5.22917 10.375 5.10417 10.3125 4.9375 10.3125H1.75ZM14.25 15.5H11.0625C10.6875 15.5 10.3542 15.375 10.0625 15.125C9.77083 14.8333 9.625 14.4792 9.625 14.0625V10.875C9.625 10.5 9.77083 10.1667 10.0625 9.875C10.3542 9.58333 10.6875 9.4375 11.0625 9.4375H14.25C14.6667 9.4375 15 9.58333 15.25 9.875C15.5417 10.1667 15.6875 10.5 15.6875 10.875V14.0625C15.6875 14.4792 15.5417 14.8333 15.25 15.125C15 15.375 14.6667 15.5 14.25 15.5ZM11.0625 10.3125C10.9375 10.3125 10.8125 10.375 10.6875 10.5C10.5625 10.625 10.5 10.75 10.5 10.875V14.0625C10.5 14.2292 10.5417 14.375 10.625 14.5C10.75 14.5833 10.8958 14.625 11.0625 14.625H14.25C14.4167 14.625 14.5417 14.5833 14.625 14.5C14.75 14.375 14.8125 14.2292 14.8125 14.0625V10.875C14.8125 10.75 14.75 10.625 14.625 10.5C14.5417 10.375 14.4167 10.3125 14.25 10.3125H11.0625Z" fill="black"/>
</svg>
