<svg width="12" height="10" viewBox="0 0 12 10" fill="none" xmlns="http://www.w3.org/2000/svg">
<path d="M4.25 6.75C4.25 7.875 4.89583 8.4375 6.1875 8.4375C7.20833 8.4375 7.71875 8.0625 7.71875 7.3125C7.71875 6.97917 7.64583 6.73958 7.5 6.59375C7.375 6.44792 7.13542 6.29167 6.78125 6.125C6.76042 6.125 6.71875 6.11458 6.65625 6.09375C6.61458 6.07292 6.57292 6.05208 6.53125 6.03125C6.48958 6.01042 6.44792 6 6.40625 6H0V4.65625H12V6H9.40625C9.40625 6.02083 9.41667 6.0625 9.4375 6.125C9.47917 6.16667 9.51042 6.19792 9.53125 6.21875C9.67708 6.57292 9.75 6.9375 9.75 7.3125C9.75 8.58333 9.05208 9.41667 7.65625 9.8125C7.21875 9.9375 6.73958 10 6.21875 10C5.88542 10 5.5625 9.96875 5.25 9.90625C4.5 9.76042 3.91667 9.53125 3.5 9.21875C2.6875 8.61458 2.28125 7.79167 2.28125 6.75H4.25ZM7.71875 3C7.71875 2.0625 7.1875 1.59375 6.125 1.59375C5.375 1.59375 4.88542 1.82292 4.65625 2.28125C4.59375 2.40625 4.5625 2.55208 4.5625 2.71875C4.5625 3.03125 4.72917 3.30208 5.0625 3.53125C5.39583 3.73958 5.70833 3.89583 6 4H2.9375C2.9375 3.97917 2.91667 3.95833 2.875 3.9375C2.83333 3.89583 2.8125 3.86458 2.8125 3.84375C2.64583 3.57292 2.5625 3.19792 2.5625 2.71875C2.5625 1.94792 2.89583 1.29167 3.5625 0.75C4.20833 0.25 5.07292 0 6.15625 0C7.26042 0 8.125 0.28125 8.75 0.84375C9.39583 1.42708 9.71875 2.14583 9.71875 3H7.71875Z" fill="#777777"/>
</svg>
